<svg width="48" height="48" viewBox="0 0 48 48" fill="none" xmlns="http://www.w3.org/2000/svg">
<g filter="url(#filter0_d_15316_61842)">
<circle cx="23.9336" cy="17.0107" r="14" fill="white"/>
<path opacity="0.5" d="M29.4434 12.9914H27.6511H24.2646V14.7213L25.2473 15.8352L27.5815 16.8448C27.8671 16.9688 28.0884 17.1973 28.2054 17.4866C28.3205 17.7775 28.3152 18.0971 28.1911 18.3827C28.0063 18.813 27.5841 19.0905 27.1155 19.0905C26.9549 19.0905 26.7995 19.0575 26.6514 18.9933L24.2637 17.9632V20.0974H32.8281V12.9932H29.4434V12.9914ZM32.1748 19.2084H30.1245V18.3747H32.1748V19.2084Z" fill="#2563EB"/>
<path d="M22.4633 11.7656C23.5922 11.7656 24.5074 10.8504 24.5074 9.72154C24.5074 8.59264 23.5922 7.67749 22.4633 7.67749C21.3344 7.67749 20.4193 8.59264 20.4193 9.72154C20.4193 10.8504 21.3344 11.7656 22.4633 11.7656Z" fill="#2563EB"/>
<path d="M24.2479 21.7234C24.2318 21.6743 24.2113 21.6297 24.1889 21.5842L22.684 18.7475L23.1178 16.2527L24.014 17.2711C24.0836 17.3479 24.1675 17.4104 24.263 17.4505L26.8373 18.5627C26.9283 18.6011 27.022 18.6198 27.1149 18.6198C27.3871 18.6198 27.6469 18.461 27.7602 18.1959C27.9155 17.8406 27.7495 17.4273 27.3943 17.272L24.9637 16.2223L23.4267 14.4791L23.4793 14.1702C23.615 13.391 23.0937 12.6484 22.3127 12.5127L21.1827 12.3172C20.4017 12.1815 19.659 12.7028 19.5233 13.4838L18.1255 21.519L15.5781 22.7061C15.1095 22.9239 14.9068 23.4818 15.1246 23.9513C15.2835 24.2914 15.6218 24.4913 15.9753 24.4913C16.1056 24.4913 16.2422 24.4637 16.3689 24.4039L19.3537 23.0105C19.6296 22.8829 19.8241 22.6285 19.8804 22.3304L20.3106 19.9668L20.9943 20.0855C21.0916 20.1033 21.1898 20.1096 21.2835 20.106L22.4966 22.3937L23.6195 25.7079C23.7516 26.0989 24.1166 26.3444 24.5067 26.3444C24.6058 26.3444 24.7075 26.3283 24.8066 26.2953C25.2958 26.1293 25.5591 25.5982 25.394 25.1081L24.2479 21.7234Z" fill="#2563EB"/>
</g>
<defs>
<filter id="filter0_d_15316_61842" x="0.722757" y="0.67749" width="46.4197" height="46.4205" filterUnits="userSpaceOnUse" color-interpolation-filters="sRGB">
<feFlood flood-opacity="0" result="BackgroundImageFix"/>
<feColorMatrix in="SourceAlpha" type="matrix" values="0 0 0 0 0 0 0 0 0 0 0 0 0 0 0 0 0 0 127 0" result="hardAlpha"/>
<feOffset dy="6.87685"/>
<feGaussianBlur stdDeviation="3.43843"/>
<feComposite in2="hardAlpha" operator="out"/>
<feColorMatrix type="matrix" values="0 0 0 0 0 0 0 0 0 0 0 0 0 0 0 0 0 0 0.25 0"/>
<feBlend mode="normal" in2="BackgroundImageFix" result="effect1_dropShadow_15316_61842"/>
<feBlend mode="normal" in="SourceGraphic" in2="effect1_dropShadow_15316_61842" result="shape"/>
</filter>
</defs>
</svg>
